<?xml version="1.0" encoding="utf-8"?>
<!-- Generator: Adobe Illustrator 15.0.0, SVG Export Plug-In . SVG Version: 6.00 Build 0)  -->
<!DOCTYPE svg PUBLIC "-//W3C//DTD SVG 1.1//EN" "http://www.w3.org/Graphics/SVG/1.1/DTD/svg11.dtd">
<svg version="1.1" id="Layer_1" xmlns="http://www.w3.org/2000/svg" xmlns:xlink="http://www.w3.org/1999/xlink" x="0px" y="0px"
	 width="84.542px" height="84.563px" viewBox="401.708 216.187 84.542 84.563"
	 enable-background="new 401.708 216.187 84.542 84.563" xml:space="preserve">
<g>
	<path fill="#A1CF3E" stroke="#A1CF3E" stroke-width="0.25" stroke-miterlimit="10" d="M418.8,230.501h1.399
		c0.772,0,1.4-0.627,1.4-1.4c0-0.774-0.628-1.4-1.4-1.4H418.8c-0.773,0-1.4,0.626-1.4,1.4
		C417.4,229.874,418.027,230.501,418.8,230.501z"/>
	<path fill="#A1CF3E" stroke="#A1CF3E" stroke-width="0.25" stroke-miterlimit="10" d="M425.799,230.501h18.2
		c0.773,0,1.4-0.627,1.4-1.4c0-0.774-0.627-1.4-1.4-1.4h-18.2c-0.772,0-1.4,0.626-1.4,1.4
		C424.399,229.874,425.027,230.501,425.799,230.501z"/>
	<path fill="#A1CF3E" stroke="#A1CF3E" stroke-width="0.25" stroke-miterlimit="10" d="M473.293,261.302h-3.043
		c-0.011,0-0.019,0-0.029,0c-0.638,0-1.271,0.096-1.882,0.28c-0.047,0.011-0.093,0.024-0.138,0.04
		c-0.743,0.257-1.432,0.646-2.034,1.148c0.304-3.219,1.899-7.895,7.949-11.467c0.646-0.402,0.852-1.245,0.466-1.9
		c-0.387-0.654-1.223-0.881-1.887-0.512c-3.761,2.043-6.692,5.328-8.294,9.293c-0.074-0.242-0.153-0.479-0.24-0.7
		c-0.701-1.844-1.858-3.48-3.361-4.759v-23.624c0-2.319-1.881-4.2-4.199-4.2h-5.858c-0.591-1.672-2.17-2.793-3.943-2.801H439.3
		c-1.178-3.354-4.345-5.601-7.899-5.601c-3.556,0-6.724,2.247-7.901,5.601H416c-1.773,0.008-3.351,1.128-3.943,2.801h-5.855
		c-2.321,0-4.2,1.88-4.2,4.2v67.199c0,2.32,1.879,4.199,4.2,4.199h50.399c0.653,0.003,1.299-0.153,1.882-0.452
		c1.277,0.299,2.588,0.452,3.9,0.452h5.234c10.135,0,18.383-8.79,18.383-19.598v-6.063C486,267.378,480.3,261.302,473.293,261.302z
		 M461.541,258.493v-0.005c0.365,1.098,0.627,2.227,0.783,3.372c-0.14-0.059-0.265-0.141-0.404-0.186
		c-0.691-0.246-1.416-0.373-2.149-0.373c-0.011,0-0.019,0-0.031,0h-3.033c-0.384,0-0.759,0.026-1.135,0.061
		c-0.034-0.01-0.061-0.031-0.098-0.039c-4.634-0.927-4.567-6.333-4.393-8.268c0.892-0.104,1.791-0.152,2.69-0.15h0.029
		C457.305,252.937,460.408,255.177,461.541,258.493z M451.001,227.701h5.6c0.772,0,1.399,0.626,1.399,1.4v21.908
		c-0.896-0.375-1.839-0.634-2.799-0.767v-16.941c0-1.547-1.255-2.8-2.8-2.8h-1.4V227.701z M414.6,226.302c0-0.774,0.628-1.4,1.4-1.4
		h8.539c0.048-0.008,0.096-0.017,0.141-0.03c0.087-0.008,0.175-0.025,0.257-0.052c0.09-0.026,0.177-0.062,0.256-0.106
		c0.233-0.125,0.424-0.316,0.551-0.549c0.045-0.081,0.082-0.167,0.108-0.257c0.021-0.042,0.04-0.084,0.056-0.129
		c0.532-2.606,2.826-4.479,5.485-4.479c2.662,0,4.954,1.873,5.485,4.479c0.019,0.05,0.037,0.101,0.062,0.148
		c0.021,0.069,0.048,0.136,0.076,0.201c0.048,0.09,0.106,0.175,0.173,0.253c0.039,0.053,0.084,0.102,0.129,0.148
		c0.085,0.073,0.175,0.134,0.272,0.184c0.196,0.133,0.432,0.2,0.67,0.189h8.539c0.775,0,1.402,0.626,1.402,1.4v5.6
		c0,0.774-0.627,1.4-1.402,1.4H416c-0.772,0-1.4-0.626-1.4-1.4V226.302z M416,236.1h30.799c1.773-0.006,3.353-1.127,3.943-2.799
		h1.659v16.82c-3.617,0.13-3.855,1.137-3.985,1.712c-0.492,2.879-0.243,7.979,3.091,10.672c-4.657,2.334-7.573,7.124-7.508,12.334
		v6.063c-0.011,3.978,1.144,7.87,3.318,11.199h-36.917v-58.8h1.656C412.65,234.973,414.227,236.094,416,236.1z M406.201,297.7
		c-0.775,0-1.4-0.624-1.4-1.399v-67.199c0-0.774,0.625-1.4,1.4-1.4h5.599v2.8h-1.399c-1.548,0-2.8,1.253-2.8,2.8v58.8
		c0,1.548,1.252,2.799,2.8,2.799h39.14c1.027,1.066,2.173,2.006,3.419,2.8H406.201z M483.2,280.902
		c0,9.262-6.991,16.798-15.583,16.798h-5.234c-8.59,0-15.584-7.533-15.584-16.798v-6.063c0-5.92,4.446-10.738,9.907-10.738h3.089
		c0.399,0.003,0.796,0.074,1.175,0.209c1.627,0.653,2.678,2.249,2.63,4.004v1.387c0,0.772,0.627,1.399,1.4,1.399
		c0.772,0,1.399-0.627,1.399-1.399v-1.393c-0.053-1.749,0.99-3.35,2.612-4.009l0.068-0.019c0.362-0.116,0.738-0.177,1.119-0.183
		h3.091c5.465,0.003,9.91,4.821,9.91,10.741V280.902z"/>
	<path fill="#A1CF3E" stroke="#A1CF3E" stroke-width="0.25" stroke-miterlimit="10" d="M454.759,266.972
		c-0.212,0.069-5.16,1.794-5.16,8.328c0,0.775,0.627,1.402,1.402,1.402c0.772,0,1.4-0.627,1.4-1.402
		c0-4.443,3.096-5.618,3.255-5.674c0.73-0.249,1.124-1.043,0.876-1.775C456.286,267.118,455.49,266.723,454.759,266.972z"/>
	<path fill="#A1CF3E" stroke="#A1CF3E" stroke-width="0.25" stroke-miterlimit="10" d="M416,250.102h4.199
		c1.548,0,2.8-1.254,2.8-2.8v-4.201c0-1.546-1.252-2.799-2.8-2.799H416c-1.546,0-2.8,1.253-2.8,2.799v4.201
		C413.2,248.847,414.454,250.102,416,250.102z M416,243.101h4.199v4.201H416V243.101z"/>
	<path fill="#A1CF3E" stroke="#A1CF3E" stroke-width="0.25" stroke-miterlimit="10" d="M416,262.702h4.199
		c1.548,0,2.8-1.255,2.8-2.8v-4.201c0-1.545-1.252-2.8-2.8-2.8H416c-1.546,0-2.8,1.254-2.8,2.8v4.201
		C413.2,261.447,414.454,262.702,416,262.702z M416,255.701h4.199v4.201H416V255.701z"/>
	<path fill="#A1CF3E" stroke="#A1CF3E" stroke-width="0.25" stroke-miterlimit="10" d="M416,275.301h4.199
		c1.548,0,2.8-1.252,2.8-2.8v-4.2c0-1.545-1.252-2.8-2.8-2.8H416c-1.546,0-2.8,1.255-2.8,2.8v4.2
		C413.2,274.049,414.454,275.301,416,275.301z M416,268.301h4.199v4.2H416V268.301z"/>
	<path fill="#A1CF3E" stroke="#A1CF3E" stroke-width="0.25" stroke-miterlimit="10" d="M416,287.901h4.199
		c1.548,0,2.8-1.254,2.8-2.8v-4.199c0-1.548-1.252-2.803-2.8-2.803H416c-1.546,0-2.8,1.255-2.8,2.803v4.199
		C413.2,286.647,414.454,287.901,416,287.901z M416,280.902h4.199v4.199H416V280.902z"/>
	<path fill="#A1CF3E" stroke="#A1CF3E" stroke-width="0.25" stroke-miterlimit="10" d="M427.201,247.302h19.598
		c0.775,0,1.402-0.627,1.402-1.401c0-0.772-0.627-1.4-1.402-1.4h-19.598c-0.775,0-1.402,0.627-1.402,1.4
		C425.799,246.675,426.426,247.302,427.201,247.302z"/>
	<path fill="#A1CF3E" stroke="#A1CF3E" stroke-width="0.25" stroke-miterlimit="10" d="M427.201,259.902H442.6
		c0.772,0,1.399-0.627,1.399-1.401c0-0.772-0.627-1.399-1.399-1.399h-15.398c-0.775,0-1.402,0.627-1.402,1.399
		C425.799,259.275,426.426,259.902,427.201,259.902z"/>
	<path fill="#A1CF3E" stroke="#A1CF3E" stroke-width="0.25" stroke-miterlimit="10" d="M427.201,272.501H439.8
		c0.772,0,1.399-0.628,1.399-1.4s-0.627-1.399-1.399-1.399h-12.599c-0.775,0-1.402,0.627-1.402,1.399
		S426.426,272.501,427.201,272.501z"/>
	<path fill="#A1CF3E" stroke="#A1CF3E" stroke-width="0.25" stroke-miterlimit="10" d="M427.201,285.101H439.8
		c0.772,0,1.399-0.627,1.399-1.399s-0.627-1.4-1.399-1.4h-12.599c-0.775,0-1.402,0.628-1.402,1.4S426.426,285.101,427.201,285.101z"
		/>
</g>
</svg>
