<?xml version="1.0" encoding="utf-8"?>
<!-- Generator: Adobe Illustrator 15.0.0, SVG Export Plug-In . SVG Version: 6.00 Build 0)  -->
<!DOCTYPE svg PUBLIC "-//W3C//DTD SVG 1.1//EN" "http://www.w3.org/Graphics/SVG/1.1/DTD/svg11.dtd">
<svg version="1.1" id="Capa_1" xmlns="http://www.w3.org/2000/svg" xmlns:xlink="http://www.w3.org/1999/xlink" x="0px" y="0px"
	 width="29.299px" height="31px" viewBox="468.652 240.5 29.299 31" enable-background="new 468.652 240.5 29.299 31"
	 xml:space="preserve">
<g>
	<path fill="#CA2C5E" d="M495.222,240.5h-23.841c-1.505,0-2.729,1.224-2.729,2.729v21.37c0,1.505,1.225,2.729,2.729,2.729h8.651
		l2.512,3.768c0.359,0.538,1.153,0.54,1.514,0l2.512-3.768h8.652c1.504,0,2.729-1.225,2.729-2.729v-21.37
		C497.95,241.724,496.727,240.5,495.222,240.5L495.222,240.5z M496.131,264.598c0,0.502-0.408,0.91-0.909,0.91h-9.139
		c-0.305,0-0.588,0.151-0.757,0.404l-2.025,3.038l-2.025-3.038c-0.168-0.253-0.452-0.404-0.757-0.404h-9.138
		c-0.502,0-0.91-0.408-0.91-0.91v-21.37c0-0.501,0.408-0.909,0.91-0.909h23.841c0.501,0,0.909,0.408,0.909,0.909V264.598z"/>
	<path fill="#CA2C5E" d="M492.118,243.919c-1.59-0.659-3.443,0.088-4.112,1.704l-4.785,11.552c-0.057,0.137-0.079,0.285-0.065,0.433
		l0.445,4.774c0.067,0.731,0.928,1.079,1.486,0.616l3.69-3.062c0.114-0.095,0.203-0.216,0.26-0.353
		c0.13-0.312,4.726-11.407,4.785-11.551C494.49,246.423,493.723,244.584,492.118,243.919L492.118,243.919z M492.142,247.336
		l-0.526,1.27l-2.455-1.017l0.526-1.27c0.28-0.677,1.059-1,1.735-0.719C492.101,245.881,492.423,246.658,492.142,247.336z
		 M487.443,258.679l-2.19,1.817l-0.265-2.834l3.477-8.393l2.455,1.017L487.443,258.679z"/>
	<path fill="#CA2C5E" d="M483.483,250.923c0-0.502-0.407-0.91-0.909-0.91h-9.124c-0.503,0-0.91,0.407-0.91,0.91
		c0,0.502,0.407,0.909,0.91,0.909h9.124C483.075,251.832,483.483,251.425,483.483,250.923z"/>
	<path fill="#CA2C5E" d="M473.449,247.595h11.331c0.503,0,0.91-0.408,0.91-0.91c0-0.502-0.407-0.91-0.91-0.91h-11.331
		c-0.503,0-0.91,0.407-0.91,0.91C472.539,247.188,472.947,247.595,473.449,247.595z"/>
	<path fill="#CA2C5E" d="M473.449,256.346h7.184c0.502,0,0.909-0.407,0.909-0.91s-0.407-0.91-0.909-0.91h-7.184
		c-0.503,0-0.91,0.407-0.91,0.91S472.947,256.346,473.449,256.346L473.449,256.346z"/>
	<path fill="#CA2C5E" d="M481.151,259.041h-7.701c-0.503,0-0.91,0.407-0.91,0.909c0,0.503,0.407,0.91,0.91,0.91h7.701
		c0.503,0,0.91-0.407,0.91-0.91C482.061,259.448,481.654,259.041,481.151,259.041z"/>
</g>
</svg>
