<?xml version="1.0" encoding="utf-8"?>
<!-- Generator: Adobe Illustrator 15.0.0, SVG Export Plug-In . SVG Version: 6.00 Build 0)  -->
<!DOCTYPE svg PUBLIC "-//W3C//DTD SVG 1.1//EN" "http://www.w3.org/Graphics/SVG/1.1/DTD/svg11.dtd">
<svg version="1.1" id="Layer_1" xmlns="http://www.w3.org/2000/svg" xmlns:xlink="http://www.w3.org/1999/xlink" x="0px" y="0px"
	 width="31.323px" height="31.313px" viewBox="480.833 240.375 31.323 31.313"
	 enable-background="new 480.833 240.375 31.323 31.313" xml:space="preserve">
<g>
	<path fill="#CA2C5E" stroke="#CA2C5E" stroke-width="0.25" stroke-miterlimit="10" d="M487.2,245.667h0.517
		c0.285,0,0.517-0.231,0.517-0.517c0-0.286-0.231-0.517-0.517-0.517H487.2c-0.285,0-0.517,0.231-0.517,0.517
		C486.684,245.436,486.915,245.667,487.2,245.667z"/>
	<path fill="#CA2C5E" stroke="#CA2C5E" stroke-width="0.25" stroke-miterlimit="10" d="M489.783,245.667h6.717
		c0.285,0,0.517-0.231,0.517-0.517c0-0.286-0.231-0.517-0.517-0.517h-6.717c-0.285,0-0.517,0.231-0.517,0.517
		C489.267,245.436,489.498,245.667,489.783,245.667z"/>
	<path fill="#CA2C5E" stroke="#CA2C5E" stroke-width="0.25" stroke-miterlimit="10" d="M507.311,257.034h-1.123
		c-0.004,0-0.007,0-0.011,0c-0.235,0-0.469,0.035-0.694,0.104c-0.018,0.004-0.034,0.009-0.051,0.015
		c-0.274,0.095-0.528,0.238-0.751,0.424c0.112-1.188,0.701-2.914,2.934-4.232c0.238-0.148,0.314-0.459,0.172-0.701
		c-0.143-0.241-0.451-0.325-0.696-0.189c-1.388,0.754-2.47,1.966-3.061,3.43c-0.027-0.089-0.057-0.177-0.089-0.258
		c-0.259-0.681-0.686-1.285-1.24-1.756v-8.718c0-0.856-0.694-1.55-1.55-1.55h-2.162c-0.218-0.617-0.801-1.031-1.455-1.034h-2.768
		c-0.435-1.238-1.604-2.067-2.915-2.067c-1.313,0-2.481,0.829-2.916,2.067h-2.768c-0.654,0.003-1.236,0.417-1.455,1.034h-2.161
		c-0.856,0-1.55,0.694-1.55,1.55v24.799c0,0.856,0.693,1.55,1.55,1.55h18.6c0.241,0.001,0.479-0.057,0.694-0.167
		c0.472,0.11,0.955,0.167,1.439,0.167h1.932c3.74,0,6.784-3.244,6.784-7.232v-2.237C512,259.276,509.897,257.034,507.311,257.034z
		 M502.974,255.997v-0.002c0.135,0.405,0.231,0.822,0.289,1.245c-0.052-0.021-0.098-0.052-0.149-0.068
		c-0.255-0.091-0.522-0.138-0.793-0.138c-0.004,0-0.007,0-0.012,0h-1.119c-0.142,0-0.28,0.01-0.419,0.022
		c-0.013-0.004-0.022-0.012-0.036-0.015c-1.71-0.342-1.686-2.337-1.621-3.051c0.329-0.038,0.661-0.056,0.993-0.055h0.011
		C501.41,253.947,502.556,254.774,502.974,255.997z M499.084,244.634h2.066c0.285,0,0.517,0.231,0.517,0.517v8.085
		c-0.331-0.139-0.679-0.234-1.033-0.283V246.7c0-0.571-0.463-1.033-1.033-1.033h-0.517V244.634z M485.651,244.117
		c0-0.286,0.231-0.517,0.517-0.517h3.151c0.018-0.003,0.035-0.006,0.052-0.011c0.032-0.003,0.064-0.009,0.095-0.019
		c0.033-0.01,0.065-0.023,0.095-0.039c0.086-0.046,0.156-0.117,0.203-0.203c0.017-0.03,0.03-0.062,0.04-0.095
		c0.008-0.016,0.015-0.031,0.021-0.048c0.196-0.962,1.043-1.653,2.024-1.653c0.982,0,1.828,0.691,2.024,1.653
		c0.007,0.019,0.014,0.037,0.022,0.055c0.008,0.025,0.018,0.05,0.028,0.074c0.018,0.033,0.039,0.064,0.063,0.093
		c0.015,0.02,0.031,0.038,0.048,0.055c0.031,0.027,0.064,0.049,0.101,0.068c0.072,0.049,0.159,0.074,0.247,0.07h3.151
		c0.286,0,0.518,0.231,0.518,0.517v2.066c0,0.286-0.231,0.517-0.518,0.517h-11.366c-0.285,0-0.517-0.231-0.517-0.517V244.117z
		 M486.167,247.734h11.366c0.654-0.002,1.237-0.416,1.455-1.033h0.612v6.208c-1.335,0.048-1.423,0.419-1.471,0.632
		c-0.182,1.063-0.09,2.945,1.141,3.938c-1.719,0.861-2.795,2.629-2.771,4.552v2.237c-0.004,1.468,0.422,2.904,1.225,4.133h-13.624
		v-21.7h0.611C484.931,247.318,485.513,247.731,486.167,247.734z M482.551,270.467c-0.286,0-0.517-0.23-0.517-0.517v-24.799
		c0-0.286,0.23-0.517,0.517-0.517h2.066v1.033h-0.517c-0.571,0-1.033,0.462-1.033,1.033v21.7c0,0.571,0.462,1.033,1.033,1.033
		h14.444c0.379,0.394,0.802,0.74,1.262,1.033H482.551z M510.967,264.267c0,3.418-2.58,6.199-5.751,6.199h-1.932
		c-3.17,0-5.751-2.78-5.751-6.199v-2.237c0-2.185,1.641-3.963,3.656-3.963h1.14c0.147,0.001,0.294,0.027,0.434,0.077
		c0.601,0.241,0.988,0.83,0.971,1.478v0.512c0,0.285,0.231,0.517,0.517,0.517s0.517-0.231,0.517-0.517v-0.514
		c-0.02-0.646,0.365-1.236,0.964-1.479l0.025-0.007c0.134-0.043,0.272-0.065,0.413-0.067h1.141c2.017,0.001,3.657,1.779,3.657,3.964
		V264.267z"/>
	<path fill="#CA2C5E" stroke="#CA2C5E" stroke-width="0.25" stroke-miterlimit="10" d="M500.471,259.127
		c-0.078,0.025-1.904,0.662-1.904,3.073c0,0.286,0.231,0.518,0.518,0.518c0.285,0,0.517-0.231,0.517-0.518
		c0-1.64,1.143-2.073,1.201-2.094c0.27-0.092,0.415-0.385,0.323-0.655C501.034,259.18,500.74,259.035,500.471,259.127z"/>
	<path fill="#CA2C5E" stroke="#CA2C5E" stroke-width="0.25" stroke-miterlimit="10" d="M486.167,252.901h1.55
		c0.571,0,1.033-0.463,1.033-1.033v-1.55c0-0.571-0.462-1.033-1.033-1.033h-1.55c-0.57,0-1.033,0.462-1.033,1.033v1.55
		C485.134,252.438,485.597,252.901,486.167,252.901z M486.167,250.317h1.55v1.55h-1.55V250.317z"/>
	<path fill="#CA2C5E" stroke="#CA2C5E" stroke-width="0.25" stroke-miterlimit="10" d="M486.167,257.551h1.55
		c0.571,0,1.033-0.463,1.033-1.033v-1.55c0-0.57-0.462-1.033-1.033-1.033h-1.55c-0.57,0-1.033,0.463-1.033,1.033v1.55
		C485.134,257.088,485.597,257.551,486.167,257.551z M486.167,254.967h1.55v1.55h-1.55V254.967z"/>
	<path fill="#CA2C5E" stroke="#CA2C5E" stroke-width="0.25" stroke-miterlimit="10" d="M486.167,262.2h1.55
		c0.571,0,1.033-0.462,1.033-1.033v-1.55c0-0.57-0.462-1.033-1.033-1.033h-1.55c-0.57,0-1.033,0.463-1.033,1.033v1.55
		C485.134,261.738,485.597,262.2,486.167,262.2z M486.167,259.617h1.55v1.55h-1.55V259.617z"/>
	<path fill="#CA2C5E" stroke="#CA2C5E" stroke-width="0.25" stroke-miterlimit="10" d="M486.167,266.85h1.55
		c0.571,0,1.033-0.463,1.033-1.033v-1.55c0-0.571-0.462-1.034-1.033-1.034h-1.55c-0.57,0-1.033,0.463-1.033,1.034v1.55
		C485.134,266.387,485.597,266.85,486.167,266.85z M486.167,264.267h1.55v1.55h-1.55V264.267z"/>
	<path fill="#CA2C5E" stroke="#CA2C5E" stroke-width="0.25" stroke-miterlimit="10" d="M490.301,251.867h7.232
		c0.286,0,0.518-0.231,0.518-0.517c0-0.285-0.231-0.517-0.518-0.517h-7.232c-0.286,0-0.518,0.231-0.518,0.517
		C489.783,251.636,490.015,251.867,490.301,251.867z"/>
	<path fill="#CA2C5E" stroke="#CA2C5E" stroke-width="0.25" stroke-miterlimit="10" d="M490.301,256.517h5.683
		c0.285,0,0.517-0.231,0.517-0.517c0-0.285-0.231-0.517-0.517-0.517h-5.683c-0.286,0-0.518,0.231-0.518,0.517
		C489.783,256.286,490.015,256.517,490.301,256.517z"/>
	<path fill="#CA2C5E" stroke="#CA2C5E" stroke-width="0.25" stroke-miterlimit="10" d="M490.301,261.167h4.649
		c0.285,0,0.517-0.231,0.517-0.517s-0.231-0.517-0.517-0.517h-4.649c-0.286,0-0.518,0.231-0.518,0.517
		S490.015,261.167,490.301,261.167z"/>
	<path fill="#CA2C5E" stroke="#CA2C5E" stroke-width="0.25" stroke-miterlimit="10" d="M490.301,265.817h4.649
		c0.285,0,0.517-0.231,0.517-0.517s-0.231-0.517-0.517-0.517h-4.649c-0.286,0-0.518,0.231-0.518,0.517
		S490.015,265.817,490.301,265.817z"/>
</g>
</svg>
