<?xml version="1.0" encoding="utf-8"?>
<!-- Generator: Adobe Illustrator 15.0.0, SVG Export Plug-In . SVG Version: 6.00 Build 0)  -->
<!DOCTYPE svg PUBLIC "-//W3C//DTD SVG 1.1//EN" "http://www.w3.org/Graphics/SVG/1.1/DTD/svg11.dtd">
<svg version="1.1" id="Layer_1" xmlns="http://www.w3.org/2000/svg" xmlns:xlink="http://www.w3.org/1999/xlink" x="0px" y="0px"
	 width="31px" height="31px" viewBox="807.09 277.02 31 31" enable-background="new 807.09 277.02 31 31" xml:space="preserve">
<g>
	<g>
		<path fill="#C82257" d="M833.958,289.998v-1.858c0-6.131-5.1-11.12-11.367-11.12s-11.367,4.988-11.367,11.12v1.858
			c-0.323-0.112-0.671-0.174-1.032-0.174c-1.71,0-3.101,1.36-3.101,3.032c0,0.138,0.028,0.273,0.084,0.398
			c0.255,0.582,5.418,12.367,5.663,12.927c0.489,1.117,1.607,1.838,2.85,1.838h14.21c0.997,0,1.896-0.579,2.288-1.476
			c0.387-0.882,5.641-12.875,5.821-13.289c0.056-0.125,0.084-0.261,0.084-0.398C838.09,290.771,835.972,289.299,833.958,289.998z
			 M813.291,288.14c0-5.017,4.172-9.098,9.3-9.098s9.3,4.082,9.3,9.098v1.858c-1.03-0.357-2.225-0.167-3.1,0.601
			c-1.178-1.032-2.956-1.032-4.134,0c-0.549-0.481-1.272-0.774-2.066-0.774s-1.518,0.293-2.066,0.774
			c-1.178-1.032-2.956-1.032-4.134,0c-0.875-0.768-2.069-0.958-3.1-0.601V288.14z M830.285,305.748
			c-0.066,0.152-0.219,0.25-0.388,0.25h-14.21c-0.414,0-0.787-0.24-0.95-0.612l-3.274-7.475h22.256L830.285,305.748z
			 M834.604,295.89h-24.027l-1.404-3.206c0.084-0.475,0.509-0.838,1.019-0.838c0.569,0,1.032,0.454,1.032,1.011
			c0,0.559,0.464,1.012,1.034,1.012c0.571,0,1.033-0.453,1.033-1.012c0-0.557,0.464-1.011,1.033-1.011
			c0.57,0,1.033,0.454,1.033,1.011c0,0.559,0.463,1.012,1.034,1.012c0.57,0,1.032-0.453,1.032-1.012
			c0-0.557,0.464-1.011,1.034-1.011c0.569,0,1.033,0.454,1.033,1.011c0,0.559,0.463,1.012,1.033,1.012s1.033-0.453,1.033-1.012
			c0-0.557,0.464-1.011,1.033-1.011c0.57,0,1.034,0.454,1.034,1.011c0,0.559,0.462,1.012,1.033,1.012
			c0.57,0,1.032-0.453,1.032-1.012c0-0.557,0.464-1.011,1.034-1.011c0.569,0,1.033,0.454,1.033,1.011
			c0,0.559,0.463,1.012,1.033,1.012s1.034-0.453,1.034-1.012c0-0.557,0.463-1.011,1.033-1.011c0.569,0,1.033,0.454,1.033,1.011
			c0,0.559,0.463,1.012,1.033,1.012s1.033-0.453,1.033-1.012c0-0.557,0.464-1.011,1.033-1.011c0.51,0,0.934,0.363,1.019,0.838
			L834.604,295.89z"/>
	</g>
</g>
</svg>
