<?xml version="1.0" encoding="utf-8"?>
<!-- Generator: Adobe Illustrator 15.0.0, SVG Export Plug-In . SVG Version: 6.00 Build 0)  -->
<!DOCTYPE svg PUBLIC "-//W3C//DTD SVG 1.1//EN" "http://www.w3.org/Graphics/SVG/1.1/DTD/svg11.dtd">
<svg version="1.1" id="Layer_1" xmlns="http://www.w3.org/2000/svg" xmlns:xlink="http://www.w3.org/1999/xlink" x="0px" y="0px"
	 width="20px" height="19.131px" viewBox="0 0 20 19.131" enable-background="new 0 0 20 19.131" xml:space="preserve">
<g>
	<path fill-rule="evenodd" clip-rule="evenodd" fill="#FFFFFF" d="M13.519,18.131c-1.071,0-2.087-0.505-2.716-1.352L10,15.7
		l-0.803,1.079c-0.629,0.847-1.645,1.352-2.715,1.352c-1.848,0-3.352-1.463-3.352-3.262c0-0.686,0.217-1.343,0.627-1.899
		l0.817-1.108l-1.307-0.435C1.912,10.977,1,9.736,1,8.341C1,6.542,2.504,5.08,4.352,5.08c0.341,0,0.68,0.05,1.007,0.149l1.29,0.39
		l0-1.421C6.684,2.429,8.173,1,10,1c1.828,0,3.319,1.432,3.352,3.203v1.416l1.289-0.39c0.327-0.099,0.666-0.149,1.007-0.149
		C17.496,5.08,19,6.542,19,8.341c0,1.395-0.911,2.636-2.268,3.086l-1.306,0.435l0.816,1.107c0.41,0.558,0.627,1.215,0.627,1.9
		C16.87,16.668,15.366,18.131,13.519,18.131z"/>
	<path fill="#CA2C5E" d="M10,2c1.274,0,2.315,0.979,2.352,2.195v0.076v2.694l2.579-0.78c0.233-0.071,0.475-0.106,0.717-0.106
		C16.944,6.08,18,7.094,18,8.341c0,0.964-0.636,1.823-1.583,2.137l-2.612,0.869l1.633,2.216c0.283,0.384,0.433,0.836,0.433,1.307
		c0,1.247-1.055,2.262-2.352,2.262c-0.757,0-1.472-0.354-1.914-0.948L10,14.024l-1.605,2.158c-0.441,0.594-1.157,0.948-1.913,0.948
		c-1.297,0-2.352-1.015-2.352-2.262c0-0.471,0.149-0.923,0.433-1.306l1.634-2.217l-2.613-0.869C2.636,10.163,2,9.305,2,8.341
		C2,7.094,3.055,6.08,4.352,6.08c0.243,0,0.485,0.036,0.718,0.106l2.579,0.78V4.271V4.204C7.681,2.983,8.723,2,10,2 M10,0
		C7.597,0,5.648,1.907,5.648,4.261c0,0.003,0.001,0.007,0.001,0.01C5.239,4.147,4.803,4.08,4.352,4.08C1.948,4.08,0,5.988,0,8.341
		c0,1.874,1.236,3.465,2.953,4.035c-0.517,0.701-0.823,1.561-0.823,2.493c0,2.353,1.948,4.262,4.352,4.262
		c1.446,0,2.727-0.691,3.518-1.755c0.791,1.063,2.072,1.755,3.519,1.755c2.403,0,4.352-1.909,4.352-4.262
		c0-0.933-0.306-1.792-0.822-2.493C18.764,11.806,20,10.215,20,8.341c0-2.353-1.948-4.261-4.353-4.261
		c-0.451,0-0.886,0.068-1.296,0.192c0-0.003,0.001-0.007,0.001-0.01C14.353,1.907,12.403,0,10,0L10,0z"/>
</g>
</svg>
