<?xml version="1.0" encoding="utf-8"?>
<!-- Generator: Adobe Illustrator 15.0.0, SVG Export Plug-In . SVG Version: 6.00 Build 0)  -->
<!DOCTYPE svg PUBLIC "-//W3C//DTD SVG 1.1//EN" "http://www.w3.org/Graphics/SVG/1.1/DTD/svg11.dtd">
<svg version="1.1" id="Layer_1" xmlns="http://www.w3.org/2000/svg" xmlns:xlink="http://www.w3.org/1999/xlink" x="0px" y="0px"
	 width="83.997px" height="84px" viewBox="412.003 206 83.997 84" enable-background="new 412.003 206 83.997 84"
	 xml:space="preserve">
<path fill="#A1CF3E" d="M488.383,274.641c1.342-1.239,2.199-2.997,2.199-4.963v-2.71c0-3.734-3.039-6.774-6.774-6.774
	c-3.271,0-6.007,2.332-6.638,5.42h-4.45c-0.561-1.573-2.051-2.71-3.814-2.71c-1.765,0-3.255,1.137-3.816,2.71h-4.45
	c-0.54-2.65-2.633-4.742-5.282-5.282v-3.039c2.331-0.605,4.064-2.709,4.064-5.227h1.355c0.749,0,1.354-0.605,1.354-1.355v-4.064
	h2.71v-2.709h-2.71v-0.014c0-2.592,1.229-5.14,3.37-6.985c3.885-3.351,6.113-8.206,6.113-13.323c0-4.839-1.923-9.351-5.414-12.704
	c-3.488-3.354-8.1-5.104-12.925-4.894c-9.145,0.369-16.72,8.119-16.884,17.276c-0.094,5.183,2.093,10.12,5.996,13.546
	c2.149,1.882,3.398,4.458,3.472,7.097h-2.696v2.709h2.71v4.064c0,0.75,0.605,1.355,1.354,1.355h1.355
	c0,2.518,1.732,4.621,4.064,5.227v3.039c-2.65,0.54-4.742,2.632-5.283,5.282h-4.45c-0.561-1.573-2.051-2.71-3.814-2.71
	c-1.765,0-3.255,1.137-3.816,2.71h-4.45c-0.63-3.088-3.365-5.42-6.637-5.42c-3.735,0-6.774,3.04-6.774,6.774v2.71
	c0,1.966,0.856,3.724,2.198,4.963c-4.461,1.813-7.617,6.189-7.617,11.295v2.709c0,0.75,0.605,1.355,1.354,1.355h21.678
	c0.748,0,1.354-0.605,1.354-1.355v-2.709c0-5.105-3.157-9.481-7.618-11.295c1.342-1.239,2.199-2.997,2.199-4.963v-1.355h4.313
	c0.562,1.573,2.052,2.71,3.816,2.71c1.764,0,3.254-1.137,3.814-2.71h4.313v1.355c0,1.966,0.856,3.724,2.198,4.963
	c-4.461,1.813-7.617,6.189-7.617,11.295v2.709c0,0.75,0.605,1.355,1.354,1.355h21.678c0.748,0,1.354-0.605,1.354-1.355v-2.709
	c0-5.105-3.157-9.481-7.618-11.295c1.342-1.239,2.199-2.997,2.199-4.963v-1.355h4.313c0.562,1.573,2.052,2.71,3.816,2.71
	c1.764,0,3.254-1.137,3.814-2.71h4.313v1.355c0,1.966,0.856,3.724,2.199,4.963c-4.462,1.813-7.618,6.189-7.618,11.295v2.709
	c0,0.75,0.605,1.355,1.355,1.355h21.677c0.748,0,1.354-0.605,1.354-1.355v-2.709C496.001,280.831,492.845,276.455,488.383,274.641z
	 M433.68,285.936v1.354h-2.709v-2.71h-2.71v2.71h-8.129v-2.71h-2.71v2.71h-2.709v-1.354c0-5.229,4.255-9.484,9.483-9.484
	C429.424,276.452,433.68,280.708,433.68,285.936z M420.132,269.678v-2.71c0-2.24,1.823-4.064,4.064-4.064
	c2.24,0,4.064,1.824,4.064,4.064v2.71c0,2.24-1.824,4.064-4.064,4.064C421.955,273.743,420.132,271.919,420.132,269.678z
	 M439.1,268.323c-0.749,0-1.355-0.606-1.355-1.354c0-0.747,0.606-1.354,1.355-1.354c0.747,0,1.354,0.607,1.354,1.354
	C440.454,267.717,439.847,268.323,439.1,268.323z M444.174,234.801c-3.303-2.897-5.152-7.074-5.072-11.46
	c0.14-7.748,6.547-14.305,14.282-14.617c4.134-0.15,7.988,1.307,10.938,4.142c2.955,2.836,4.583,6.655,4.583,10.75
	c0,4.328-1.887,8.436-5.174,11.269c-2.739,2.363-4.311,5.657-4.311,9.039v0.014H448.57
	C448.495,240.519,446.91,237.199,444.174,234.801z M459.421,246.646v2.71h-10.838v-2.71H459.421z M451.292,252.066h5.42
	c0,1.494-1.216,2.709-2.71,2.709S451.292,253.56,451.292,252.066z M463.486,285.936v1.354h-2.709v-2.71h-2.71v2.71h-8.129v-2.71
	h-2.71v2.71h-2.709v-1.354c0-5.229,4.255-9.484,9.483-9.484S463.486,280.708,463.486,285.936z M449.938,269.678v-2.71
	c0-2.24,1.823-4.064,4.064-4.064c2.24,0,4.064,1.824,4.064,4.064v2.71c0,2.24-1.824,4.064-4.064,4.064
	C451.761,273.743,449.938,271.919,449.938,269.678z M468.906,268.323c-0.749,0-1.355-0.606-1.355-1.354
	c0-0.747,0.606-1.354,1.355-1.354c0.747,0,1.354,0.607,1.354,1.354C470.26,267.717,469.653,268.323,468.906,268.323z
	 M479.743,269.678v-2.71c0-2.24,1.823-4.064,4.064-4.064s4.064,1.824,4.064,4.064v2.71c0,2.24-1.823,4.064-4.064,4.064
	S479.743,271.919,479.743,269.678z M493.291,287.291h-2.709v-2.71h-2.71v2.71h-8.129v-2.71h-2.71v2.71h-2.709v-1.354
	c0-5.229,4.255-9.484,9.483-9.484s9.483,4.256,9.483,9.484V287.291z"/>
<path fill="#A1CF3E" d="M451.292,238.518h5.42v2.709h-5.42V238.518z"/>
<path fill="#A1CF3E" d="M452.648,230.252v2.847h2.709v-2.847c0.863-0.176,1.665-0.52,2.375-0.992l2.087,2.087l1.915-1.916
	l-2.086-2.086c0.471-0.71,0.815-1.512,0.991-2.375h2.847v-2.709h-2.847c-0.176-0.863-0.521-1.665-0.991-2.375l2.086-2.086
	l-1.915-1.916l-2.087,2.086c-0.71-0.472-1.512-0.816-2.375-0.992v-2.847h-2.709v2.847c-0.863,0.176-1.665,0.52-2.376,0.992
	l-2.086-2.086l-1.915,1.916l2.086,2.086c-0.472,0.71-0.815,1.512-0.992,2.375h-2.846v2.709h2.846
	c0.177,0.863,0.521,1.665,0.992,2.375l-2.086,2.086l1.915,1.916l2.086-2.087C450.983,229.732,451.784,230.076,452.648,230.252z
	 M454.002,219.55c2.24,0,4.064,1.824,4.064,4.065c0,2.24-1.824,4.064-4.064,4.064c-2.241,0-4.064-1.824-4.064-4.064
	C449.938,221.374,451.761,219.55,454.002,219.55z"/>
</svg>
