<?xml version="1.0" encoding="utf-8"?>
<!-- Generator: Adobe Illustrator 15.0.0, SVG Export Plug-In . SVG Version: 6.00 Build 0)  -->
<!DOCTYPE svg PUBLIC "-//W3C//DTD SVG 1.1//EN" "http://www.w3.org/Graphics/SVG/1.1/DTD/svg11.dtd">
<svg version="1.1" id="Capa_1" xmlns="http://www.w3.org/2000/svg" xmlns:xlink="http://www.w3.org/1999/xlink" x="0px" y="0px"
	 width="84px" height="84px" viewBox="-51 -25.5 84 84" enable-background="new -51 -25.5 84 84" xml:space="preserve">
<g>
	<g>
		<path fill="#A1CF3E" d="M-23-25.5c-11.598,0-21,9.402-21,21v15.399c0.006,5.411,4.39,9.794,9.8,9.802h1.399v-2.802H-34.2
			c-3.864-0.002-6.996-3.136-7-7V-4.5c0-10.051,8.148-18.2,18.2-18.2S-4.799-14.551-4.799-4.5v15.399
			c-0.005,3.864-3.137,6.998-7.001,7H-13.2v2.802h1.399c5.41-0.008,9.795-4.391,9.8-9.802V-4.5C-2-16.098-11.402-25.5-23-25.5z"/>
	</g>
</g>
<g>
	<g>
		<path fill="#A1CF3E" d="M-39.462,40.48l1.023-1.61l-2.364-1.502l-1.024,1.613c-3.095,4.877-2.865,11.156,0.578,15.795V58.5h2.8
			v-4.201c0-0.318-0.108-0.626-0.307-0.875C-41.732,49.705-42.016,44.505-39.462,40.48z"/>
	</g>
</g>
<g>
	<g>
		<path fill="#A1CF3E" d="M26-25.5H7.799c-3.863,0.005-6.995,3.136-7,7v14c0.005,3.864,3.137,6.995,7,7h2.802v5.601
			c-0.002,0.565,0.34,1.076,0.862,1.292C11.632,9.464,11.816,9.5,12,9.5c0.373,0,0.726-0.148,0.989-0.41l6.59-6.59H26
			c3.863-0.005,6.995-3.136,7-7v-14C32.995-22.364,29.863-25.495,26-25.5z M30.201-4.5c0,2.319-1.882,4.2-4.201,4.2h-7
			c-0.373,0-0.726,0.148-0.989,0.41l-4.611,4.611V1.101C13.399,0.328,12.773-0.3,12-0.3H7.799c-2.316,0-4.198-1.88-4.198-4.2v-14
			c0-2.319,1.882-4.2,4.198-4.2H26c2.319,0,4.201,1.88,4.201,4.2V-4.5z"/>
	</g>
</g>
<g>
	<g>
		<rect x="7.799" y="-18.5" fill="#A1CF3E" width="9.802" height="2.8"/>
	</g>
</g>
<g>
	<g>
		<rect x="20.399" y="-18.5" fill="#A1CF3E" width="5.601" height="2.8"/>
	</g>
</g>
<g>
	<g>
		<rect x="7.799" y="-12.899" fill="#A1CF3E" width="18.201" height="2.799"/>
	</g>
</g>
<g>
	<g>
		<rect x="7.799" y="-7.3" fill="#A1CF3E" width="9.802" height="2.8"/>
	</g>
</g>
<g>
	<g>
		<path fill="#A1CF3E" d="M-4.172,38.981l-1.024-1.613l-2.364,1.502l1.021,1.613c2.555,4.021,2.272,9.222-0.706,12.94
			c-0.199,0.249-0.306,0.557-0.306,0.875V58.5h2.801v-3.724C-1.309,50.138-1.078,43.858-4.172,38.981z"/>
	</g>
</g>
<g>
	<g>
		<path fill="#A1CF3E" d="M31.601,22.101H19c-5.252,0.008-9.565,4.153-9.779,9.398L5,39.096v-5.797
			C4.995,27.89,0.61,23.505-4.799,23.5h-5.119l-0.037-0.03L-9.98,23.5H-13.2c-1.546,0-2.8-1.253-2.8-2.799v-3.295
			c4.325-2.499,6.994-7.111,7-12.106v-11.2c-0.002-2.321-0.579-4.603-1.68-6.645c-0.352-0.65-1.15-0.914-1.82-0.603l-23.696,11.15
			C-36.687-1.766-37-1.272-37-0.73V5.3c0.006,4.995,2.675,9.607,7,12.106v3.295c0,1.546-1.254,2.799-2.8,2.799H-41.2
			c-5.41,0.005-9.794,4.39-9.8,9.799V58.5h2.8V33.299c0.004-3.862,3.136-6.995,7-7h4.455l12.606,17.614
			c0.26,0.363,0.675,0.582,1.12,0.587H-23c0.441,0,0.855-0.209,1.12-0.562l13.3-17.64h3.781c3.863,0.005,6.995,3.138,7,7V44.5
			c0,0.773,0.626,1.399,1.402,1.397c0.507,0,0.975-0.273,1.221-0.719l6.6-11.88h8.027L5.8,58.5h3.185L22.64,33.299h0.562
			c5.409-0.005,9.794-4.39,9.799-9.799C33,22.727,32.374,22.101,31.601,22.101z M-34.2,5.3V0.16l21.618-10.173
			c0.517,1.31,0.782,2.706,0.782,4.114V5.3c0,6.185-5.014,11.2-11.2,11.2S-34.2,11.485-34.2,5.3z M-22.97,40.736l-4.32-6.035h8.869
			L-22.97,40.736z M-16.302,31.899H-29.3l-4.008-5.601h0.508c3.094,0,5.601-2.506,5.601-5.598v-2.049
			c2.733,0.863,5.667,0.863,8.399,0v2.049c0,3.092,2.507,5.598,5.601,5.598h1.12L-16.302,31.899z M23.201,30.5H12.139
			c0.671-3.257,3.535-5.598,6.861-5.601h11.062C29.391,28.158,26.527,30.495,23.201,30.5z"/>
	</g>
</g>
</svg>
