<svg 
 xmlns="http://www.w3.org/2000/svg"
 xmlns:xlink="http://www.w3.org/1999/xlink"
 width="25px" height="26px">
<defs>
<linearGradient id="PSgrad_0" x1="0%" x2="0%" y1="0%" y2="100%">
  <stop offset="0%" stop-color="rgb(181,40,114)" stop-opacity="1" />
  <stop offset="29%" stop-color="rgb(191,37,101)" stop-opacity="1" />
  <stop offset="100%" stop-color="rgb(200,34,87)" stop-opacity="1" />
</linearGradient>

</defs>
<path fill-rule="evenodd"  fill="rgb(142, 0, 1)"
 d="M19.729,21.508 C19.215,24.830 17.528,25.703 14.670,24.128 C12.627,26.737 10.747,26.616 9.029,23.765 C6.006,24.963 4.436,23.881 4.318,20.518 C1.125,19.983 0.285,18.229 1.800,15.257 C-0.709,13.132 -0.593,11.177 2.149,9.390 C0.997,6.246 2.038,4.613 5.271,4.491 C5.785,1.169 7.472,0.296 10.330,1.872 C12.372,-0.737 14.253,-0.616 15.971,2.234 C18.994,1.037 20.564,2.119 20.681,5.482 C23.875,6.016 24.715,7.770 23.200,10.743 C25.709,12.867 25.593,14.823 22.851,16.609 C24.003,19.754 22.962,21.387 19.729,21.508 Z"/>
<path fill="url(#PSgrad_0)"
 d="M19.729,21.508 C19.215,24.830 17.528,25.703 14.670,24.128 C12.627,26.737 10.747,26.616 9.029,23.765 C6.006,24.963 4.436,23.881 4.318,20.518 C1.125,19.983 0.285,18.229 1.800,15.257 C-0.709,13.132 -0.593,11.177 2.149,9.390 C0.997,6.246 2.038,4.613 5.271,4.491 C5.785,1.169 7.472,0.296 10.330,1.872 C12.372,-0.737 14.253,-0.616 15.971,2.234 C18.994,1.037 20.564,2.119 20.681,5.482 C23.875,6.016 24.715,7.770 23.200,10.743 C25.709,12.867 25.593,14.823 22.851,16.609 C24.003,19.754 22.962,21.387 19.729,21.508 Z"/>
</svg>