<?xml version="1.0" encoding="utf-8"?>
<!-- Generator: Adobe Illustrator 15.0.0, SVG Export Plug-In . SVG Version: 6.00 Build 0)  -->
<!DOCTYPE svg PUBLIC "-//W3C//DTD SVG 1.1//EN" "http://www.w3.org/Graphics/SVG/1.1/DTD/svg11.dtd">
<svg version="1.1" id="Layer_1" xmlns="http://www.w3.org/2000/svg" xmlns:xlink="http://www.w3.org/1999/xlink" x="0px" y="0px"
	 width="140.314px" height="159px" viewBox="707.367 198.882 140.314 159" enable-background="new 707.367 198.882 140.314 159"
	 xml:space="preserve">
<g>
	<g>
		<linearGradient id="SVGID_1_" gradientUnits="userSpaceOnUse" x1="772.729" y1="357.8821" x2="772.729" y2="227.1589">
			<stop  offset="0" style="stop-color:#A1CF3E"/>
			<stop  offset="1" style="stop-color:#84C53B"/>
		</linearGradient>
		<path fill="url(#SVGID_1_)" d="M820.661,281.886v-7.839c0-25.854-21.501-46.889-47.932-46.889
			c-26.429,0-47.933,21.035-47.933,46.889v7.839c-1.363-0.473-2.83-0.733-4.356-0.733c-7.209,0-13.073,5.737-13.073,12.788
			c0,0.578,0.12,1.149,0.354,1.679c1.075,2.455,22.846,52.15,23.88,54.511c2.063,4.71,6.78,7.752,12.017,7.752h59.924
			c4.205,0,7.991-2.442,9.648-6.223c1.629-3.719,23.785-54.294,24.548-56.04c0.234-0.529,0.354-1.101,0.354-1.679
			C838.09,285.142,829.157,278.938,820.661,281.886z M733.513,274.048c0-21.153,17.592-38.365,39.216-38.365
			c21.623,0,39.216,17.211,39.216,38.365v7.839c-4.344-1.508-9.382-0.704-13.07,2.532c-4.968-4.354-12.465-4.354-17.433,0
			c-2.313-2.029-5.367-3.265-8.713-3.265c-3.347,0-6.399,1.236-8.714,3.265c-4.968-4.354-12.464-4.354-17.433,0
			c-3.688-3.237-8.727-4.04-13.069-2.532V274.048z M805.176,348.302c-0.28,0.641-0.924,1.054-1.636,1.054h-59.924
			c-1.746,0-3.319-1.013-4.006-2.583l-13.81-31.519h93.854L805.176,348.302z M823.39,306.729H722.067l-5.921-13.518
			c0.355-2.003,2.146-3.533,4.294-3.533c2.403,0,4.356,1.913,4.356,4.263c0,2.354,1.953,4.265,4.359,4.265
			c2.407,0,4.357-1.91,4.357-4.265c0-2.35,1.955-4.263,4.356-4.263c2.403,0,4.356,1.913,4.356,4.263
			c0,2.354,1.953,4.265,4.359,4.265s4.356-1.91,4.356-4.265c0-2.35,1.956-4.263,4.357-4.263c2.403,0,4.359,1.913,4.359,4.263
			c0,2.354,1.95,4.265,4.356,4.265s4.356-1.91,4.356-4.265c0-2.35,1.956-4.263,4.357-4.263c2.403,0,4.359,1.913,4.359,4.263
			c0,2.354,1.95,4.265,4.356,4.265s4.356-1.91,4.356-4.265c0-2.35,1.956-4.263,4.359-4.263c2.401,0,4.357,1.913,4.357,4.263
			c0,2.354,1.95,4.265,4.356,4.265s4.359-1.91,4.359-4.265c0-2.35,1.953-4.263,4.356-4.263c2.404,0,4.357,1.913,4.357,4.263
			c0,2.354,1.952,4.265,4.356,4.265c2.406,0,4.359-1.91,4.359-4.265c0-2.35,1.955-4.263,4.356-4.263
			c2.148,0,3.938,1.529,4.295,3.533L823.39,306.729z"/>
	</g>
</g>
<path fill-rule="evenodd" clip-rule="evenodd" fill="#C82257" d="M847.681,225.561c0-7.526-6.23-13.63-13.92-13.63
	c-1.445,0-2.836,0.216-4.148,0.615c0-0.012,0.003-0.023,0.003-0.035c0-7.528-6.233-13.629-13.92-13.629s-13.921,6.102-13.921,13.629
	c0,0.012,0.003,0.023,0.003,0.035c-1.312-0.399-2.705-0.615-4.147-0.615c-7.689,0-13.92,6.104-13.92,13.63
	c0,5.995,3.954,11.081,9.443,12.906c-1.653,2.244-2.632,4.995-2.632,7.975c0,7.527,6.231,13.63,13.921,13.63
	c4.625,0,8.722-2.211,11.253-5.612c2.531,3.401,6.627,5.612,11.253,5.612c7.689,0,13.92-6.103,13.92-13.63
	c0-2.979-0.978-5.731-2.632-7.975C843.726,236.642,847.681,231.556,847.681,225.561z"/>
<g>
	<g>
		<path fill="#FFFFFF" d="M814.465,238.285c-1.18,1.179-3.092,1.179-4.271,0l-6.615-6.615c-1.179-1.178-1.179-3.091,0-4.269
			c1.179-1.179,3.091-1.179,4.271,0l3.94,3.941c0.298,0.297,0.781,0.297,1.079,0l10.672-10.672c1.179-1.179,3.092-1.179,4.271,0
			c0.565,0.566,0.884,1.334,0.884,2.135c0,0.8-0.318,1.568-0.884,2.134L814.465,238.285z"/>
	</g>
</g>
</svg>
